<?xml version="1.0" standalone="no"?><!DOCTYPE svg PUBLIC "-//W3C//DTD SVG 1.1//EN" "http://www.w3.org/Graphics/SVG/1.1/DTD/svg11.dtd"><svg t="1771313191138" class="icon" viewBox="0 0 1024 1024" version="1.1" xmlns="http://www.w3.org/2000/svg" p-id="23108" xmlns:xlink="http://www.w3.org/1999/xlink" width="200" height="200"><path d="M511.701333 149.717333c-15.402667 0-30.933333 3.114667-45.482666 9.258667L148.608 292.394667c-17.92 7.509333-17.450667 32.768 0.426667 40.277333l319.317333 128.512c27.989333 11.52 59.306667 11.52 87.296 0l319.36-128.512c17.877333-7.082667 17.877333-32.768 0.426667-40.277333l-318.506667-133.418667a114.176 114.176 0 0 0-45.226667-9.258667zM917.333333 369.621333a20.650667 20.650667 0 0 0-7.893333 1.621334l-355.968 139.989333a21.845333 21.845333 0 0 0-13.525333 20.394667v321.237333a21.973333 21.973333 0 0 0 9.429333 17.749333 21.077333 21.077333 0 0 0 19.754667 2.176l356.010666-140.458666a20.778667 20.778667 0 0 0 13.525334-19.882667v-321.28a21.845333 21.845333 0 0 0-6.314667-15.232 21.162667 21.162667 0 0 0-15.018667-6.314667z m-807.978666 1.408a22.613333 22.613333 0 0 0-17.066667 6.826667A21.205333 21.205333 0 0 0 85.333333 392.533333v301.696c0 15.957333 18.346667 26.624 32.298667 19.498667l339.413333-165.717333c16.554667-7.936 15.274667-32.768-2.176-39.424L116.736 372.565333a19.968 19.968 0 0 0-7.381333-1.536z" fill="#323544" p-id="23109" class="custom-cursor-on-hover"></path></svg>