<?xml version="1.0" standalone="no"?><!DOCTYPE svg PUBLIC "-//W3C//DTD SVG 1.1//EN" "http://www.w3.org/Graphics/SVG/1.1/DTD/svg11.dtd"><svg t="1771312686465" class="icon" viewBox="0 0 1024 1024" version="1.1" xmlns="http://www.w3.org/2000/svg" p-id="11389" xmlns:xlink="http://www.w3.org/1999/xlink" width="200" height="200"><path d="M231.68 931.13856L8.92928 545.31072a66.6112 66.6112 0 0 1 0-66.62144L231.68 92.8768a66.6112 66.6112 0 0 1 57.6-33.31072h445.71136c23.68 0.10752 45.52192 12.8 57.35936 33.31072l222.72 385.80736a66.6112 66.6112 0 0 1 0 66.62144l-222.75072 385.82784a66.61632 66.61632 0 0 1-57.6 33.31072H289.12128a66.68288 66.68288 0 0 1-57.48736-33.31072h0.04608z" fill="#4386FA" p-id="11390"></path><path d="M651.15136 387.75808s61.92128 148.5312-22.49728 232.71936c-84.41344 84.19328-238.1312 30.30528-238.1312 30.30528l312.67328 313.53856h31.744a66.6112 66.6112 0 0 0 57.6-33.31584l147.456-255.32416-288.8448-287.9232z" fill="#000000" opacity=".1" p-id="11391"></path><path d="M724.27008 691.68128l-68.2752-68.43392a10.72128 10.72128 0 0 0-2.52416-1.92 186.0608 186.0608 0 0 0 38.26688-131.61984A186.0608 186.0608 0 0 0 500.49024 321.2288a186.08128 186.08128 0 1 0 120.46848 332.68736c0.4864 0.88064 1.09568 1.6896 1.80736 2.40128l68.4288 68.4288a10.73152 10.73152 0 0 0 15.1552 0l17.92-17.92a10.72128 10.72128 0 0 0 0-15.15008z m-218.0352-44.25728a140.00128 140.00128 0 1 1-0.03072-279.99744 140.00128 140.00128 0 0 1 0.03584 279.99744z m-89.48736-147.456v57.856a102.81984 102.81984 0 0 0 37.41184 38.00064v-96.2048l-37.41184 0.34816z m70.00064-47.96928v156.35456c12.3648 2.2784 25.04192 2.2784 37.40672 0V451.99872h-37.40672z m108.22656 105.69728v-34.27328h-37.376v72.00256a102.912 102.912 0 0 0 37.40672-37.888l-0.03072 0.15872z" fill="#FFFFFF" p-id="11392"></path></svg>