<?xml version="1.0" standalone="no"?><!DOCTYPE svg PUBLIC "-//W3C//DTD SVG 1.1//EN" "http://www.w3.org/Graphics/SVG/1.1/DTD/svg11.dtd"><svg t="1771313484550" class="icon" viewBox="0 0 1024 1024" version="1.1" xmlns="http://www.w3.org/2000/svg" p-id="32328" xmlns:xlink="http://www.w3.org/1999/xlink" width="200" height="200"><path d="M404.589945 1024S-43.652581 924.133053 156.620261 428.463158c0 0 45.918316 55.134316 39.235368 81.650526 0 0 35.570526-125.197474 112.532211-199.895579C374.570577 245.76 441.561735 65.212632 379.798366 0c0 0 306.553263 65.212632 340.776421 391.706947 0 0 39.289263-104.016842 119.646316-114.256842a226.034526 226.034526 0 0 0 0 142.821053s254.005895 440.589474-183.673263 589.554526c0 0 131.125895-151.066947-146.970947-410.085052 0 0-65.697684 139.587368-104.717474 187.553684-0.269474 0-109.783579 124.496842-0.269474 236.705684z" fill="#FF5562" p-id="32329"></path></svg>