<?xml version="1.0" standalone="no"?><!DOCTYPE svg PUBLIC "-//W3C//DTD SVG 1.1//EN" "http://www.w3.org/Graphics/SVG/1.1/DTD/svg11.dtd"><svg t="1771312826683" class="icon" viewBox="0 0 1024 1024" version="1.1" xmlns="http://www.w3.org/2000/svg" p-id="16310" xmlns:xlink="http://www.w3.org/1999/xlink" width="200" height="200"><path d="M365.02485 82.481577c21.059126 0 37.730934 6.142245 37.730934 35.976007s-16.671808 45.628106-37.730934 45.628106-35.976007-14.916881-35.976007-45.628106 16.671808-35.976007 35.976007-35.976007zM402.755784 0a146.536418 146.536418 0 0 0-146.536418 146.536418v87.746358h219.365895c20.181662 0 35.976007 28.956298 35.976007 49.137961H146.536418A146.536418 146.536418 0 0 0 0 428.202228v193.041988a146.536418 146.536418 0 0 0 146.536418 146.536418h60.544987V630.896315A145.658955 145.658955 0 0 1 350.985433 484.359897h270.258783a145.658955 145.658955 0 0 0 146.536418-145.658954V146.536418A146.536418 146.536418 0 0 0 621.244216 0z" fill="#3C73A1" p-id="16311"></path><path d="M658.097686 859.036847c20.181662 0 36.85347 15.794344 36.853471 45.628106a37.730934 37.730934 0 0 1-11.407027 26.323907 37.730934 37.730934 0 0 1-25.446444 10.529563c-20.181662 0-36.85347-6.142245-36.85347-36.85347s16.671808-45.628106 36.85347-45.628106z m-333.436161-368.534705a43.873179 43.873179 0 0 0 10.529563 0z m492.25707-234.282776v136.884319a143.904027 143.904027 0 0 1-42.995716 103.540702 145.658955 145.658955 0 0 1-102.663239 42.995716H402.755784a145.658955 145.658955 0 0 0-146.536418 145.658954V877.463582a146.536418 146.536418 0 0 0 146.536418 146.536418h218.488432A146.536418 146.536418 0 0 0 767.780634 877.463582V789.717224h-219.365895c-20.181662 0-36.85347-28.956298-36.853471-49.137961H877.463582a146.536418 146.536418 0 0 0 146.536418-146.536418V401.87832A145.658955 145.658955 0 0 0 877.463582 256.219366z" fill="#F3D13D" p-id="16312"></path></svg>