<?xml version="1.0" standalone="no"?><!DOCTYPE svg PUBLIC "-//W3C//DTD SVG 1.1//EN" "http://www.w3.org/Graphics/SVG/1.1/DTD/svg11.dtd"><svg t="1771313330643" class="icon" viewBox="0 0 1137 1024" version="1.1" xmlns="http://www.w3.org/2000/svg" p-id="27631" xmlns:xlink="http://www.w3.org/1999/xlink" width="222.0703125" height="200"><path d="M487.082667 83.437037c-7.585185 15.17037-7.585185 34.133333 0 49.303704 37.925926 56.888889 125.155556 197.214815 204.8 337.54074 83.437037 151.703704 159.288889 303.407407 193.422222 371.674075 3.792593 7.585185 3.792593 15.17037 0 22.755555-3.792593 7.585185-11.377778 11.377778-18.962963 11.377778l-87.22963-7.585185c-7.585185 0-15.17037-3.792593-18.962963-11.377778-18.962963-41.718519-91.022222-182.044444-174.459259-329.955556-53.096296-91.022222-106.192593-178.251852-144.118518-235.14074-7.585185-15.17037-22.755556-22.755556-37.925926-22.755556s-30.340741 7.585185-37.925926 22.755556l-159.288889 280.651851c-7.585185 15.17037-7.585185 37.925926 3.792592 53.096297 26.548148 34.133333 49.303704 64.474074 72.05926 98.607407 22.755556 34.133333 37.925926 72.059259 53.096296 113.777778 3.792593 7.585185 0 15.17037-3.792593 18.962963-3.792593 7.585185-11.377778 11.377778-18.962963 11.377778l-83.437037 3.792592c-7.585185 0-18.962963-3.792593-22.755555-15.17037-7.585185-15.17037-22.755556-45.511111-37.925926-72.059259-3.792593-3.792593-3.792593-7.585185-7.585185-11.377778-7.585185-15.17037-22.755556-22.755556-37.925926-22.755556s-30.340741 7.585185-37.925926 22.755556L5.423407 910.222222c-11.377778 22.755556-11.377778 49.303704 0 68.266667 11.377778 22.755556 34.133333 34.133333 60.681482 34.133333l428.562963 3.792593c15.17037 0 30.340741-7.585185 37.925926-22.755556 7.585185-15.17037 11.377778-30.340741 3.792592-45.511111-18.962963-41.718519-45.511111-98.607407-72.059259-144.118518-45.511111-79.644444-91.022222-155.496296-109.985185-182.044445-3.792593-7.585185-3.792593-18.962963 0-26.548148l45.511111-72.059259c3.792593-7.585185 11.377778-11.377778 18.962963-11.377778s15.17037 3.792593 18.962963 11.377778c26.548148 45.511111 79.644444 128.948148 128.948148 219.97037 49.303704 91.022222 94.814815 189.62963 125.155556 250.311111 7.585185 15.17037 22.755556 26.548148 41.718518 26.548148l333.748148 3.792593c22.755556 0 45.511111-11.377778 60.681482-34.133333 11.377778-22.755556 11.377778-49.303704 0-68.266667l-493.037037-883.674074c-11.377778-22.755556-34.133333-37.925926-60.681482-37.925926-22.755556 0-45.511111 11.377778-60.681481 34.133333l-26.548148 49.303704z" fill="#357CFF" p-id="27632"></path></svg>